<svg xmlns="http://www.w3.org/2000/svg" width="222.946" height="159.517" viewBox="0 0 222.946 159.517">
  <g id="iconfinder_3244993_eggplant_vegetable_vegetables_veggie_veggies_icon" transform="translate(33.286 159.517) rotate(-111)" opacity="0.7">
    <path id="Path_7" data-name="Path 7" d="M90.374,125.116a164.332,164.332,0,0,1-1.759-23.539C88.6,81.772,92.58,70.3,92.671,61.14v-.225A51.9,51.9,0,0,0,87.6,39.421c-2.352-4.81-6.057-9.38-11.164-11.876L89.152,5.651a3.762,3.762,0,1,0-6.506-3.779L69.1,25.2a3.809,3.809,0,0,0-.194.427c-.354-.017-.7-.045-1.067-.044-4.287-.141-26.147.58-38.734,26.165C22.061,66,8.5,102.758,4.706,121.919,3.3,129.128.007,142.952,0,157.2c.016,10.869,1.883,22.214,8.545,31.172,6.665,9,18.173,14.826,35.214,14.778h.1c19.552.068,32.394-6.463,39.755-16.444,7.354-9.938,9.254-22.5,9.271-34.314C92.88,142.216,91.428,132.446,90.374,125.116ZM67.841,33.107c6,.02,9.973,3.764,13.037,9.689a43.015,43.015,0,0,1,3.843,12.875c-2.019-2.985-4.08-5.476-4.107-5.659a1.881,1.881,0,0,0-3.358,1.356s.039.345.039,1.053a18.313,18.313,0,0,1-1.4,7.031c-.448,1.053-1.349,2.856-2.15,4.417-1.611-2.631-4.125-6.607-6.639-10.052-3.767-5.1-5.671-13.6-5.7-13.594a1.881,1.881,0,0,0-3.43-.591c.011.093-4.683,6.915-7.871,7.445-1.5.36-2.54.547-3.247.646L45.832,41.6A32.51,32.51,0,0,1,67.841,33.107ZM43.856,195.628h-.089C13.379,195.2,8.093,177.491,7.525,157.2c-.007-13.146,3.1-26.409,4.566-33.834,3.451-17.8,17.153-55.061,23.755-68.271A48.6,48.6,0,0,1,42.57,44.915l.843,5.053a1.884,1.884,0,0,0,1.12,1.424,3.08,3.08,0,0,0,1.208.195,24.533,24.533,0,0,0,5.229-.849c3.269-.9,6.009-3.623,7.822-5.857a40.578,40.578,0,0,0,5.271,11.157c4.009,5.482,8.16,12.616,8.17,12.626a1.879,1.879,0,0,0,3.286-.062c.014-.029,2.773-5.2,3.832-7.666a20.984,20.984,0,0,0,1.326-4.458c.221.317.445.643.67.973A29.167,29.167,0,0,1,84.8,63.61a2.245,2.245,0,0,0-.095.648,1.9,1.9,0,0,0,.08.549.78.78,0,0,0,.092.263c-.9,7.444-3.777,19.284-3.789,36.51a171.971,171.971,0,0,0,1.837,24.613c1.059,7.328,2.432,16.732,2.43,26.2C84.762,174.7,79.327,195.2,43.856,195.628Z" transform="translate(0 0)" fill="#fdde02"/>
    <path id="Path_8" data-name="Path 8" d="M103.561,216.562a.753.753,0,0,0-.938.5,34.442,34.442,0,0,1-1.77,4.646.753.753,0,0,0,1.364.637,35.9,35.9,0,0,0,1.846-4.849A.752.752,0,0,0,103.561,216.562Z" transform="translate(-24.952 -53.609)" fill="#fdde02"/>
    <path id="Path_9" data-name="Path 9" d="M89.352,227.927a.754.754,0,0,0-1.035.24,34.589,34.589,0,0,1-29.4,16.341.752.752,0,1,0,0,1.5,36.089,36.089,0,0,0,30.678-17.047A.752.752,0,0,0,89.352,227.927Z" transform="translate(-14.4 -56.403)" fill="#fdde02"/>
  </g>
</svg>
