<svg xmlns="http://www.w3.org/2000/svg" width="226.232" height="227.628" viewBox="0 0 226.232 227.628">
  <g id="iconfinder_3244988_onion_vegetable_vegetables_veggie_veggies_icon" transform="matrix(0.719, 0.695, -0.695, 0.719, 131.127, 0)" opacity="0.7">
    <path id="Path_4" data-name="Path 4" d="M123.154,91.671a51.637,51.637,0,0,0-18.761-17.977c-2.887-1.712-5.4-3.014-7.007-4.053a9.232,9.232,0,0,1-1.6-1.217l-.089.03-.085-.387c-3.038-10.882-7.3-24.2-7.309-24.222A3.489,3.489,0,0,0,85,41.417c-.572-6.28-1.355-12.389-1.351-17.686a35.885,35.885,0,0,1,.463-6.152,1.75,1.75,0,0,0-3.189-1.259,130.225,130.225,0,0,0-9.133,17.416c.082-2.025.132-4.124.132-6.248-.044-10.046-.977-20.56-5.282-26.752a1.748,1.748,0,0,0-2.935.129c-3.62,6.235-4.617,14.882-4.635,23.35,0,3.49.183,6.949.454,10.186-3.2-8.408-7.859-16.678-12.426-18.765a1.751,1.751,0,0,0-2.35,1.793c.685,7.794.986,16.139,1.586,24.076a3.486,3.486,0,0,0-2.584,2.341c-.006.022-4.269,13.342-7.294,24.224l-.085.387-.09-.029c-2,2.715-17.63,7.147-27.26,23.249A63.446,63.446,0,0,0,0,124.364a64.542,64.542,0,0,0,63.962,64.4h4.065a64.652,64.652,0,0,0,64.185-64.4A63.311,63.311,0,0,0,123.154,91.671ZM81.689,43.751c-.023.064-.053.125-.073.192L76.182,62.784,71.041,47.75c1.125-7.161,5.612-16.736,9.129-23.233C80.251,30.544,81.152,37.177,81.689,43.751ZM65.325,5.558c2.282,5.333,3.14,13.8,3.1,21.931,0,4.933-.273,9.747-.6,13.761a4.119,4.119,0,0,0-4.008.214,133.263,133.263,0,0,1-1.244-17.249C62.56,17.443,63.316,10.649,65.325,5.558ZM60.107,50.249l-4.266,12.5-5.391-18.8a3.5,3.5,0,0,0-.49-1.031c-.575-7.017-.881-14.523-1.406-21.793C53.387,27.158,60.087,43.77,60.107,50.249Zm48.138,114.717a57.131,57.131,0,0,1-40.219,16.8H63.961A57.541,57.541,0,0,1,7,124.365a56.429,56.429,0,0,1,8.026-29.084C19.819,87.309,25.962,82.9,31.3,79.707c5.059-3.462,9.905-4.074,11.851-9.774l.048.014c1.167-4.2,2.528-8.782,3.751-12.813L52.188,75.4a3.5,3.5,0,0,0,6.674.165L66,54.641l7.154,20.922a3.5,3.5,0,0,0,6.672-.163l5.277-18.3c1.229,4.039,2.6,8.643,3.772,12.85l.049-.014c1.955,5.705,6.811,6.308,11.892,9.776,5.358,3.193,11.526,7.6,16.341,15.575a56.286,56.286,0,0,1,8.051,29.079A57.068,57.068,0,0,1,108.245,164.966Z" transform="translate(0 0)" fill="#eb181e"/>
    <path id="Path_5" data-name="Path 5" d="M164.67,177.587a.7.7,0,0,0-.818.558,60.855,60.855,0,0,1-3.39,11.509.7.7,0,0,0,1.3.526,62.245,62.245,0,0,0,3.469-11.775A.7.7,0,0,0,164.67,177.587Z" transform="translate(-48.162 -53.315)" fill="#eb181e"/>
    <path id="Path_6" data-name="Path 6" d="M137.427,207.734a.7.7,0,0,0-.963.226,62.541,62.541,0,0,1-39.713,28.061.7.7,0,1,0,.3,1.368,63.94,63.94,0,0,0,40.6-28.692A.7.7,0,0,0,137.427,207.734Z" transform="translate(-28.883 -62.338)" fill="#eb181e"/>
  </g>
</svg>
