<svg xmlns="http://www.w3.org/2000/svg" width="282.879" height="106.838" viewBox="0 0 282.879 106.838">
  <g id="iconfinder_3244997_chilli_pepper_vegetable_vegetables_veggie_icon" transform="matrix(0.999, 0.035, -0.035, 0.999, 3.389, 0)" opacity="0.7">
    <path id="Path_10" data-name="Path 10" d="M278.126,22.326a5.181,5.181,0,0,0-3.616-1.472c-3.4.43-3.146,1.129-4.508,1.812-5.562,4.4-49.037,16.814-88.6,22.149a179.338,179.338,0,0,1-24.8,1.765c-27.219.006-48.393-6.671-61.972-14.144C80.219,24.58,69.9,20.1,60.453,20.009a22.888,22.888,0,0,0-8.25,1.462,27.777,27.777,0,0,0-8.7,6c-.824-.729-1.713-1.517-2.648-2.49C29.487,15.138,7.855.906,7.763.834L7.8.859,7.791.854a5,5,0,0,0-5.582,8.3l.009.006.038.023c.02.015,9.566,6.313,19.1,13.266,4.759,3.472,9.515,7.11,12.946,10.09,1.284,1.113,2.384,2.143,3.192,2.979a35.894,35.894,0,0,0-4.5,16.036c0,.34.006.683.02,1.021.734,8.443,7.741,16.165,20.624,24.059,13.015,7.727,32.51,14.9,59.717,18.962a141.682,141.682,0,0,0,20.938,1.546c46.038-.028,83.666-21.858,104.6-34.208a174.226,174.226,0,0,0,27.61-20.75c3.619-3.306,6.589-6.285,8.731-8.64,1.074-1.184,1.935-2.2,2.62-3.115.622-1.261,1.339-.9,1.8-4.425A5.164,5.164,0,0,0,278.126,22.326ZM233.8,54.318C213.083,66.6,177.11,87.165,134.288,87.135A131.723,131.723,0,0,1,114.825,85.7c-26.183-3.9-44.512-10.783-56.082-17.67C47.044,61.312,42.7,53.868,43,52.143c-.009-.195-.011-.4-.011-.6-.164-3.516,1.37-7.854,3.615-11.67a4.983,4.983,0,0,0,1.88-2.847c2.3-3.114,4.97-5.52,7.29-6.22A12.873,12.873,0,0,1,60.454,30c5.907-.09,15.442,3.475,29.358,11.192C105,49.539,127.737,56.569,156.6,56.575a189.362,189.362,0,0,0,26.183-1.86c26.671-3.857,53.442-9.805,71.831-15.425A146.733,146.733,0,0,1,233.8,54.318Z" fill="#66973c"/>
    <path id="Path_11" data-name="Path 11" d="M67.025,61.006A109.612,109.612,0,0,1,52.8,51.163a1,1,0,1,0-1.264,1.552A111.945,111.945,0,0,0,66.02,62.733a1,1,0,1,0,1-1.727Z" fill="#66973c"/>
    <path id="Path_12" data-name="Path 12" d="M136.119,75.379a112.285,112.285,0,0,1-12.923.749A111.917,111.917,0,0,1,78.681,66.9a1,1,0,0,0-.8,1.836v0a113.877,113.877,0,0,0,45.312,9.4,114.252,114.252,0,0,0,13.153-.761,1,1,0,1,0-.23-1.985Z" fill="#66973c"/>
  </g>
</svg>
